# xmcd
#
# Track frame offsets:
#	150
#	17790
#	36610
#	49582
#	66225
#	80050
#	94060
#	111210
#	129815
#	142860
#	160690
#	177032
#	192525
#	206092
#
# Disc length: 2996 seconds
#
# Revision: 3
# Processed by: cddbd v1.5.1PL0 Copyright (c) Steve Scherf et al.
# Submitted via: audiograbber 1.83.01
#
DISCID=c00bb20e
DTITLE=Various Artist - Today's Pure Country
DYEAR=1995
DGENRE=Country
TTITLE0=John Berry - Your Love Amazes Me
TTITLE1=Vince Gill - No Future In the Past
TTITLE2=Chris LeDoux - Cadillac Ranch
TTITLE3=Jim Witter - Chevy Coupe
TTITLE4=Patty Loveless - Hurt Me Bad (In a Real Good Way)
TTITLE5=Hal Ketchum - Hearts Are Going To Roll
TTITLE6=South Mountain - Where There's A Will
TTITLE7=Suzy Bogguss - Hey Cinderella
TTITLE8=One Horse Blue - Hopeless Love
TTITLE9=Ron Hynes - Roy Orbison Came On
TTITLE10=Farmer's Daughter - Son of a Preacher Man
TTITLE11=Billy Dean - We Just Disagree
TTITLE12=Anita Perras - When Love Comes Around The Bend
TTITLE13=Tanya Tucker - Two Sparrows In A Hurricane
EXTD=
EXTT0=
EXTT1=
EXTT2=
EXTT3=
EXTT4=
EXTT5=
EXTT6=
EXTT7=
EXTT8=
EXTT9=
EXTT10=
EXTT11=
EXTT12=
EXTT13=
PLAYORDER=
